<svg width="30" height="31" viewBox="0 0 30 31" fill="none" xmlns="http://www.w3.org/2000/svg">
<g id="Frame" clip-path="url(#clip0_43_66)">
<g id="Group">
<path id="Vector" d="M22.0467 17.9613C25.9323 14.077 25.9323 7.75665 22.0467 3.87229C18.1612 -0.0121192 11.8389 -0.0121192 7.95325 3.87229C4.06767 7.75665 4.06767 14.077 7.95325 17.9613C9.59798 19.6055 11.6793 20.5535 13.8275 20.8058V24.1412H11.4827C10.8352 24.1412 10.3103 24.6659 10.3103 25.3132C10.3103 25.9605 10.8352 26.4853 11.4827 26.4853H13.8275V29.7869C13.8276 30.4342 14.3525 30.959 15 30.959C15.6475 30.959 16.1724 30.4342 16.1724 29.7869V26.4853H18.5173C19.1648 26.4853 19.6897 25.9605 19.6897 25.3132C19.6897 24.6659 19.1648 24.1412 18.5173 24.1412H16.1724V20.8059C18.3207 20.5535 20.402 19.6055 22.0467 17.9613ZM9.61134 16.3038C6.63999 13.3334 6.63999 8.50021 9.61134 5.52979C12.5826 2.5595 17.4173 2.55933 20.3887 5.52979C23.3601 8.50021 23.3601 13.3334 20.3887 16.3038C17.4174 19.2741 12.5827 19.2741 9.61134 16.3038Z" fill="white"/>
</g>
</g>
<defs>
<clipPath id="clip0_43_66">
<rect width="30" height="30" fill="white" transform="translate(0 0.958984)"/>
</clipPath>
</defs>
</svg>
