<svg width="30" height="31" viewBox="0 0 30 31" fill="none" xmlns="http://www.w3.org/2000/svg">
<g id="Frame" clip-path="url(#clip0_43_418)">
<g id="Group">
<path id="Vector" d="M29.9838 2.04789C29.9701 1.94008 29.9463 1.83633 29.907 1.73898C29.9057 1.73664 29.9057 1.7332 29.9051 1.73016C29.9051 1.72953 29.9045 1.72891 29.9039 1.72836C29.8605 1.62578 29.8013 1.53273 29.7345 1.44633C29.718 1.42594 29.7019 1.4057 29.6845 1.38656C29.613 1.30594 29.5355 1.23148 29.4455 1.17078C29.4431 1.16891 29.44 1.16836 29.4376 1.16648C29.3505 1.10914 29.2545 1.06578 29.1537 1.03164C29.1287 1.02273 29.1043 1.01516 29.0787 1.00844C28.973 0.979766 28.8645 0.958984 28.75 0.958984H20C19.31 0.958984 18.75 1.51898 18.75 2.20898C18.75 2.89898 19.31 3.45898 20 3.45898H25.7318L18.2712 10.9196C16.2817 9.32852 13.8324 8.45898 11.25 8.45898C5.04703 8.45898 0 13.506 0 19.709C0 25.912 5.04703 30.959 11.25 30.959C17.453 30.959 22.5 25.912 22.5 19.709C22.5 17.1277 21.6312 14.6791 20.0387 12.6878L27.5 5.22656V10.959C27.5 11.649 28.06 12.209 28.75 12.209C29.44 12.209 30 11.649 30 10.959V2.20898C30 2.18273 29.9939 2.15773 29.9923 2.13211C29.9904 2.10392 29.9876 2.07589 29.9838 2.04789ZM11.25 28.459C6.42484 28.459 2.5 24.5341 2.5 19.709C2.5 14.8838 6.42484 10.959 11.25 10.959C13.5861 10.959 15.7855 11.8684 17.4393 13.5163C19.0905 15.1734 20 17.3729 20 19.709C20 24.5341 16.0752 28.459 11.25 28.459Z" fill="white"/>
</g>
</g>
<defs>
<clipPath id="clip0_43_418">
<rect width="30" height="30" fill="white" transform="translate(0 0.958984)"/>
</clipPath>
</defs>
</svg>
