<svg width="16" height="16" viewBox="0 0 16 16" fill="none" xmlns="http://www.w3.org/2000/svg">
<g id="question-circle">
<path id="Vector" d="M7.52666 10.1934C7.49799 10.2251 7.47128 10.2584 7.44666 10.2934C7.42143 10.3305 7.40126 10.3709 7.38666 10.4134C7.36744 10.4512 7.35396 10.4916 7.34667 10.5334C7.34339 10.5778 7.34339 10.6223 7.34667 10.6667C7.34441 10.7542 7.36268 10.8409 7.4 10.92C7.42994 11.0028 7.47771 11.0779 7.53992 11.1401C7.60213 11.2023 7.67727 11.2501 7.76 11.28C7.8398 11.3153 7.92608 11.3335 8.01333 11.3335C8.10058 11.3335 8.18686 11.3153 8.26666 11.28C8.3494 11.2501 8.42453 11.2023 8.48674 11.1401C8.54895 11.0779 8.59672 11.0028 8.62666 10.92C8.65627 10.839 8.66985 10.7529 8.66667 10.6667C8.66717 10.579 8.65036 10.492 8.61718 10.4108C8.584 10.3295 8.53512 10.2557 8.47333 10.1934C8.41136 10.1309 8.33762 10.0813 8.25638 10.0474C8.17514 10.0136 8.08801 9.99618 8 9.99618C7.91199 9.99618 7.82485 10.0136 7.74361 10.0474C7.66237 10.0813 7.58864 10.1309 7.52666 10.1934ZM8 1.33337C6.68146 1.33337 5.39252 1.72437 4.2962 2.45691C3.19987 3.18945 2.34539 4.23064 1.8408 5.44882C1.33622 6.66699 1.20419 8.00744 1.46143 9.30064C1.71866 10.5938 2.3536 11.7817 3.28595 12.7141C4.2183 13.6464 5.40619 14.2814 6.6994 14.5386C7.9926 14.7958 9.33305 14.6638 10.5512 14.1592C11.7694 13.6547 12.8106 12.8002 13.5431 11.7038C14.2757 10.6075 14.6667 9.31858 14.6667 8.00004C14.6667 7.12456 14.4942 6.25766 14.1592 5.44882C13.8242 4.63998 13.3331 3.90505 12.714 3.286C12.095 2.66694 11.3601 2.17588 10.5512 1.84084C9.74238 1.50581 8.87548 1.33337 8 1.33337ZM8 13.3334C6.94516 13.3334 5.91402 13.0206 5.03696 12.4345C4.15989 11.8485 3.47631 11.0156 3.07264 10.041C2.66897 9.06648 2.56336 7.99412 2.76914 6.95956C2.97493 5.92499 3.48288 4.97468 4.22876 4.2288C4.97464 3.48292 5.92495 2.97497 6.95952 2.76919C7.99408 2.5634 9.06644 2.66902 10.041 3.07268C11.0155 3.47635 11.8485 4.15994 12.4345 5.037C13.0205 5.91406 13.3333 6.94521 13.3333 8.00004C13.3333 9.41453 12.7714 10.7711 11.7712 11.7713C10.771 12.7715 9.41449 13.3334 8 13.3334ZM8 4.66671C7.64871 4.66648 7.30355 4.75879 6.99927 4.93434C6.69499 5.10988 6.44231 5.36248 6.26666 5.66671C6.21843 5.74259 6.18604 5.82744 6.17145 5.91616C6.15685 6.00488 6.16036 6.09563 6.18175 6.18297C6.20314 6.2703 6.24198 6.3524 6.29592 6.42433C6.34986 6.49626 6.4178 6.55654 6.49565 6.60154C6.57349 6.64653 6.65963 6.67532 6.74889 6.68616C6.83814 6.697 6.92867 6.68968 7.01502 6.66463C7.10138 6.63957 7.18177 6.59731 7.25136 6.54039C7.32096 6.48346 7.37832 6.41304 7.42 6.33337C7.47873 6.23164 7.56331 6.14723 7.66516 6.08869C7.76701 6.03016 7.88252 5.99957 8 6.00004C8.17681 6.00004 8.34638 6.07028 8.4714 6.1953C8.59643 6.32033 8.66667 6.4899 8.66667 6.66671C8.66667 6.84352 8.59643 7.01309 8.4714 7.13811C8.34638 7.26314 8.17681 7.33337 8 7.33337C7.82319 7.33337 7.65362 7.40361 7.52859 7.52864C7.40357 7.65366 7.33333 7.82323 7.33333 8.00004V8.66671C7.33333 8.84352 7.40357 9.01309 7.52859 9.13811C7.65362 9.26314 7.82319 9.33337 8 9.33337C8.17681 9.33337 8.34638 9.26314 8.4714 9.13811C8.59643 9.01309 8.66667 8.84352 8.66667 8.66671V8.54671C9.10758 8.38672 9.47824 8.07686 9.71385 7.67129C9.94946 7.26571 10.035 6.79024 9.9556 6.32797C9.87617 5.8657 9.6368 5.44605 9.27933 5.14238C8.92186 4.83872 8.46903 4.67035 8 4.66671Z" fill="#0129E3"/>
</g>
</svg>
