<svg width="14" height="14" viewBox="0 0 14 14" fill="none" xmlns="http://www.w3.org/2000/svg">
<g id="search">
<path id="Vector" d="M12.6642 11.8358L10.5 9.68911C11.3401 8.64168 11.7469 7.3122 11.6368 5.97404C11.5267 4.63587 10.9081 3.39073 9.90823 2.49465C8.9083 1.59857 7.60306 1.11966 6.26088 1.15639C4.91869 1.19311 3.64159 1.74269 2.69217 2.69211C1.74275 3.64153 1.19317 4.91863 1.15645 6.26082C1.11972 7.603 1.59863 8.90824 2.49471 9.90816C3.3908 10.9081 4.63593 11.5267 5.9741 11.6368C7.31226 11.7468 8.64175 11.34 9.68917 10.4999L11.8358 12.6466C11.8901 12.7013 11.9546 12.7447 12.0257 12.7743C12.0968 12.8039 12.173 12.8192 12.25 12.8192C12.327 12.8192 12.4033 12.8039 12.4743 12.7743C12.5454 12.7447 12.6099 12.7013 12.6642 12.6466C12.7693 12.5378 12.8281 12.3925 12.8281 12.2412C12.8281 12.0899 12.7693 11.9446 12.6642 11.8358ZM6.41667 10.4999C5.60907 10.4999 4.81959 10.2605 4.14809 9.81178C3.47659 9.3631 2.95322 8.72537 2.64416 7.97924C2.33511 7.2331 2.25424 6.41208 2.4118 5.61999C2.56936 4.8279 2.95826 4.10032 3.52932 3.52926C4.10038 2.95819 4.82796 2.56929 5.62005 2.41174C6.41214 2.25418 7.23317 2.33504 7.9793 2.6441C8.72543 2.95316 9.36316 3.47653 9.81184 4.14803C10.2605 4.81953 10.5 5.609 10.5 6.41661C10.5 7.49958 10.0698 8.53819 9.30402 9.30396C8.53825 10.0697 7.49964 10.4999 6.41667 10.4999Z" fill="#050B2B"/>
</g>
</svg>
