<svg width="16" height="16" viewBox="0 0 16 16" fill="none" xmlns="http://www.w3.org/2000/svg">
<g id="search">
<path id="Vector" d="M14.4733 13.5267L12 11.0734C12.9601 9.87633 13.425 8.35692 13.2992 6.82759C13.1734 5.29826 12.4664 3.87525 11.3237 2.85115C10.1809 1.82706 8.6892 1.27973 7.15528 1.32171C5.62136 1.36368 4.16181 1.99177 3.07676 3.07682C1.99171 4.16187 1.36362 5.62142 1.32164 7.15534C1.27967 8.68926 1.827 10.181 2.85109 11.3237C3.87519 12.4665 5.2982 13.1735 6.82753 13.2993C8.35686 13.4251 9.87627 12.9601 11.0733 12.0001L13.5267 14.4534C13.5886 14.5159 13.6624 14.5655 13.7436 14.5993C13.8249 14.6332 13.912 14.6506 14 14.6506C14.088 14.6506 14.1751 14.6332 14.2564 14.5993C14.3376 14.5655 14.4114 14.5159 14.4733 14.4534C14.5935 14.3291 14.6607 14.163 14.6607 13.9901C14.6607 13.8172 14.5935 13.651 14.4733 13.5267V13.5267ZM7.33333 12.0001C6.41035 12.0001 5.5081 11.7264 4.74067 11.2136C3.97324 10.7008 3.3751 9.97197 3.02189 9.11925C2.66868 8.26653 2.57627 7.32821 2.75633 6.42297C2.9364 5.51773 3.38085 4.6862 4.0335 4.03356C4.68614 3.38091 5.51766 2.93646 6.42291 2.75639C7.32815 2.57633 8.26646 2.66874 9.11919 3.02195C9.97191 3.37516 10.7007 3.9733 11.2135 4.74073C11.7263 5.50816 12 6.41041 12 7.33339C12 8.57107 11.5083 9.75805 10.6332 10.6332C9.75799 11.5084 8.57101 12.0001 7.33333 12.0001V12.0001Z" fill="white"/>
</g>
</svg>
