<svg width="17" height="16" viewBox="0 0 17 16" fill="none" xmlns="http://www.w3.org/2000/svg">
<g id="star">
<path id="Vector" d="M15.5 6.44664C15.4579 6.3247 15.3813 6.21759 15.2795 6.13831C15.1778 6.05903 15.0552 6.01097 14.9267 5.99997L11.1333 5.44664L9.43332 1.99997C9.37873 1.88726 9.29349 1.7922 9.18738 1.72569C9.08126 1.65918 8.95856 1.6239 8.83332 1.6239C8.70808 1.6239 8.58538 1.65918 8.47926 1.72569C8.37314 1.7922 8.28791 1.88726 8.23332 1.99997L6.53332 5.43997L2.73998 5.99997C2.6166 6.01751 2.5006 6.06928 2.40515 6.14941C2.3097 6.22954 2.23862 6.33482 2.19998 6.45331C2.16461 6.56909 2.16144 6.69232 2.1908 6.80977C2.22017 6.92722 2.28096 7.03446 2.36665 7.11998L5.11999 9.78664L4.45332 13.5733C4.42952 13.6983 4.44198 13.8275 4.48923 13.9456C4.53648 14.0637 4.61655 14.1659 4.71999 14.24C4.8208 14.312 4.9397 14.3546 5.06335 14.3628C5.187 14.3711 5.3105 14.3447 5.41999 14.2866L8.83332 12.5066L12.2333 14.2933C12.3269 14.3461 12.4326 14.3737 12.54 14.3733C12.6812 14.3738 12.8189 14.3295 12.9333 14.2466C13.0367 14.1725 13.1168 14.0704 13.1641 13.9523C13.2113 13.8341 13.2238 13.705 13.2 13.58L12.5333 9.79331L15.2867 7.12664C15.3829 7.04509 15.454 6.93791 15.4918 6.81754C15.5296 6.69717 15.5324 6.56856 15.5 6.44664ZM11.4 9.11331C11.3218 9.18893 11.2633 9.28254 11.2296 9.38596C11.1959 9.48938 11.188 9.59947 11.2067 9.70664L11.6867 12.5L9.17999 11.1666C9.08353 11.1153 8.97593 11.0884 8.86665 11.0884C8.75737 11.0884 8.64977 11.1153 8.55332 11.1666L6.04665 12.5L6.52665 9.70664C6.54528 9.59947 6.53739 9.48938 6.5037 9.38596C6.47 9.28254 6.4115 9.18893 6.33332 9.11331L4.33332 7.11331L7.13999 6.70664C7.24798 6.69162 7.35065 6.65034 7.43898 6.58641C7.52732 6.52248 7.59862 6.43787 7.64665 6.33997L8.83332 3.79997L10.0867 6.34664C10.1347 6.44453 10.206 6.52915 10.2943 6.59308C10.3827 6.657 10.4853 6.69829 10.5933 6.71331L13.4 7.11998L11.4 9.11331Z" fill="#0129E3"/>
</g>
</svg>
