<svg width="216" height="40" viewBox="0 0 216 40" fill="none" xmlns="http://www.w3.org/2000/svg">
<g id="Logo" clip-path="url(#clip0_2_157)">
<path id="Union" fill-rule="evenodd" clip-rule="evenodd" d="M13.7254 2.32191C13.3576 3.04362 13.3576 3.9884 13.3576 5.87796V13.8376H5.39822C3.50867 13.8376 2.56389 13.8376 1.84217 14.2053C1.20734 14.5288 0.691198 15.0449 0.367732 15.6797C0 16.4015 0 17.3462 0 19.2358V20.7644C0 22.6539 0 23.5987 0.367732 24.3204C0.691198 24.9552 1.20734 25.4714 1.84217 25.7949C2.56389 26.1626 3.50867 26.1626 5.39823 26.1626H13.3576V34.1222C13.3576 36.0118 13.3576 36.9565 13.7254 37.6783C14.0488 38.3131 14.565 38.8292 15.1998 39.1527C15.9215 39.5204 16.8663 39.5204 18.7559 39.5204H20.2844C22.174 39.5204 23.1188 39.5204 23.8405 39.1527C24.4753 38.8292 24.9915 38.3131 25.3149 37.6783C25.6827 36.9565 25.6827 36.0118 25.6827 34.1222V26.1626H33.6425C35.532 26.1626 36.4768 26.1626 37.1985 25.7949C37.8334 25.4714 38.3495 24.9552 38.673 24.3204C39.0407 23.5987 39.0407 22.6539 39.0407 20.7644V19.2358C39.0407 17.3462 39.0407 16.4015 38.673 15.6797C38.3495 15.0449 37.8334 14.5288 37.1985 14.2053C36.4768 13.8376 35.532 13.8376 33.6425 13.8376H25.6827V5.87796C25.6827 3.9884 25.6827 3.04362 25.3149 2.32191C24.9915 1.68707 24.4753 1.17093 23.8405 0.847468C23.1188 0.479736 22.174 0.479736 20.2844 0.479736H18.7559C16.8663 0.479736 15.9215 0.479736 15.1998 0.847468C14.565 1.17093 14.0488 1.68707 13.7254 2.32191Z" fill="url(#paint0_linear_2_157)"/>
<g id="Med Yordam">
<path d="M51.1638 31.4247C50.0348 31.4247 49.3698 30.7288 49.3698 29.5534V11.1186C49.3698 9.54114 50.3441 8.58229 51.9371 8.58229C53.3135 8.58229 54.1022 9.16997 54.6899 10.6547L60.8063 25.6298C60.8205 25.6644 60.8541 25.6871 60.8915 25.6871C60.929 25.6871 60.9627 25.6644 60.9768 25.6297L67.0777 10.6547C67.6654 9.18544 68.4696 8.58229 69.8615 8.58229C71.4545 8.58229 72.3979 9.52568 72.3979 11.1186V29.5534C72.3979 30.7288 71.7328 31.4247 70.6039 31.4247C69.4749 31.4247 68.8099 30.7288 68.8099 29.5534V15.3901C68.8099 15.3543 68.7808 15.3252 68.745 15.3252C68.7188 15.3252 68.6951 15.3411 68.6851 15.3653L62.7784 29.6772C62.3917 30.6051 61.8195 31.0226 60.8916 31.0226C59.9791 31.0226 59.376 30.6051 59.0048 29.6926L53.0981 15.3654C53.0881 15.3411 53.0644 15.3252 53.0381 15.3252C53.0023 15.3252 52.9733 15.3543 52.9733 15.3901V29.5534C52.9733 30.7288 52.2928 31.4247 51.1638 31.4247Z" fill="#050B2B"/>
<path d="M82.6057 31.4866C77.5949 31.4866 74.641 28.3471 74.641 23.027C74.641 17.7997 77.6567 14.4282 82.3892 14.4282C86.8741 14.4282 89.9363 17.6141 89.9363 22.0682C89.9363 23.2126 89.2867 23.8931 88.1423 23.8931H78.6001C78.5318 23.8931 78.4764 23.9485 78.4764 24.0168C78.4764 26.7542 80.0693 28.5172 82.5747 28.5172C84.3069 28.5172 85.4358 27.9141 86.6731 26.3366C87.0752 25.8881 87.4309 25.718 87.9722 25.718C88.8382 25.718 89.5187 26.2748 89.5187 27.2027C89.5187 27.4965 89.4259 27.8368 89.2558 28.177C88.1732 30.2648 85.7297 31.4866 82.6057 31.4866ZM78.7136 20.2006C78.6211 20.5052 78.5749 20.6576 78.6267 20.8485C78.6664 20.9948 78.7972 21.1712 78.9257 21.2517C79.0934 21.3567 79.2902 21.3567 79.6839 21.3567H85.0247C85.4088 21.3567 85.6009 21.3567 85.7658 21.2563C85.8926 21.1791 86.0235 21.0103 86.0666 20.8682C86.1227 20.6834 86.0839 20.5327 86.0062 20.2314C85.5589 18.4952 84.2067 17.4131 82.4046 17.4131C80.617 17.4131 79.23 18.4989 78.7136 20.2006Z" fill="#050B2B"/>
<path d="M97.9171 31.4247C93.7878 31.4247 91.1123 28.1615 91.1123 22.9497C91.1123 17.7688 93.7878 14.4901 97.9171 14.4901C100.254 14.4901 102.102 15.6973 102.974 17.489C102.984 17.5087 103.004 17.5213 103.026 17.5213C103.057 17.5213 103.083 17.4958 103.083 17.4644V10.5619C103.083 9.26276 103.871 8.53589 105 8.53589C106.129 8.53589 106.933 9.26276 106.933 10.5619V29.538C106.933 30.7752 106.145 31.4711 105.031 31.4711C103.918 31.4711 103.083 30.7907 103.083 29.538V28.3007C103.083 28.2751 103.062 28.2543 103.036 28.2543C103.017 28.2543 103 28.2656 102.993 28.2829C102.199 30.1541 100.441 31.4247 97.9171 31.4247ZM99.077 28.2698C101.505 28.2698 103.098 26.2129 103.098 22.9651C103.098 19.7483 101.505 17.6605 99.077 17.6605C96.6025 17.6605 95.056 19.7174 95.056 22.9651C95.056 26.2284 96.587 28.2698 99.077 28.2698Z" fill="#050B2B"/>
<path d="M123.885 31.4247C122.648 31.4247 121.905 30.6669 121.905 29.3524V22.6913C121.905 22.5689 121.905 22.5077 121.895 22.4484C121.886 22.3958 121.87 22.3445 121.849 22.2955C121.825 22.2402 121.792 22.1891 121.724 22.0867L114.93 11.7372C114.652 11.2887 114.528 10.8557 114.528 10.4072C114.528 9.35556 115.379 8.58229 116.508 8.58229C117.343 8.58229 117.822 8.87613 118.333 9.74219L123.845 18.5182C123.86 18.5426 123.887 18.5575 123.916 18.5575C123.945 18.5575 123.971 18.5427 123.987 18.5183L129.514 9.74219C130.009 8.90706 130.504 8.58229 131.293 8.58229C132.406 8.58229 133.257 9.35556 133.257 10.3917C133.257 10.8557 133.133 11.2733 132.839 11.7372L126.06 22.087C125.993 22.1893 125.959 22.2404 125.936 22.2955C125.915 22.3445 125.899 22.3958 125.89 22.4482C125.88 22.5074 125.88 22.5685 125.88 22.6907V29.3524C125.88 30.6669 125.137 31.4247 123.885 31.4247Z" fill="#050B2B"/>
<path d="M139.088 31.4866C134.278 31.4866 131.154 28.2853 131.154 22.9651C131.154 17.676 134.309 14.4282 139.088 14.4282C143.867 14.4282 147.022 17.6605 147.022 22.9651C147.022 28.2853 143.898 31.4866 139.088 31.4866ZM139.088 28.4399C141.531 28.4399 143.109 26.4603 143.109 22.9651C143.109 19.4854 141.531 17.4904 139.088 17.4904C136.66 17.4904 135.067 19.4854 135.067 22.9651C135.067 26.4603 136.644 28.4399 139.088 28.4399Z" fill="#050B2B"/>
<path d="M150.78 31.4711C149.621 31.4711 148.863 30.7133 148.863 29.4452V16.3923C148.863 15.186 149.605 14.4437 150.703 14.4437C151.77 14.4437 152.528 15.186 152.528 16.3923V17.6019C152.528 17.6257 152.547 17.645 152.571 17.645C152.591 17.645 152.609 17.631 152.613 17.6116C153.07 15.7129 154.486 14.4901 156.116 14.4901C156.719 14.4901 157.183 14.6447 157.477 14.9077C157.833 15.2015 158.018 15.6655 158.018 16.2995C158.018 16.9027 157.833 17.3512 157.446 17.6605C157.075 17.9853 156.503 18.1554 155.745 18.1709C153.549 18.1863 152.714 19.5627 152.714 21.5578V29.4452C152.714 30.7133 151.94 31.4711 150.78 31.4711Z" fill="#050B2B"/>
<path d="M164.623 31.4247C160.493 31.4247 157.818 28.1615 157.818 22.9497C157.818 17.7688 160.493 14.4901 164.623 14.4901C166.959 14.4901 168.807 15.6973 169.68 17.489C169.689 17.5087 169.709 17.5213 169.731 17.5213C169.763 17.5213 169.788 17.4958 169.788 17.4644V10.5619C169.788 9.26276 170.577 8.53589 171.706 8.53589C172.835 8.53589 173.639 9.26276 173.639 10.5619V29.538C173.639 30.7752 172.85 31.4711 171.737 31.4711C170.623 31.4711 169.788 30.7907 169.788 29.538V28.3007C169.788 28.2751 169.767 28.2543 169.742 28.2543C169.723 28.2543 169.706 28.2656 169.699 28.2829C168.904 30.1541 167.146 31.4247 164.623 31.4247ZM165.783 28.2698C168.211 28.2698 169.804 26.2129 169.804 22.9651C169.804 19.7483 168.211 17.6605 165.783 17.6605C163.308 17.6605 161.762 19.7174 161.762 22.9651C161.762 26.2284 163.293 28.2698 165.783 28.2698Z" fill="#050B2B"/>
<path d="M181.048 31.4247C177.877 31.4247 175.573 29.4297 175.573 26.4758C175.573 23.5683 177.815 21.8207 181.805 21.5733L185.112 21.385C185.478 21.3642 185.661 21.3537 185.799 21.2759C185.922 21.2074 186.02 21.1033 186.081 20.9774C186.151 20.8345 186.151 20.6513 186.151 20.2851V20.1504C186.151 18.4338 184.991 17.444 183.089 17.444C181.589 17.444 180.615 17.9543 179.656 19.3617C179.254 19.8875 178.743 20.135 178.094 20.135C177.15 20.135 176.47 19.5164 176.47 18.5884C176.47 18.2327 176.563 17.8925 176.733 17.5368C177.568 15.6345 180.104 14.4282 183.244 14.4282C187.311 14.4282 189.956 16.5779 189.956 19.8721V29.538C189.956 30.7752 189.167 31.4711 188.084 31.4711C187.033 31.4711 186.306 30.8371 186.244 29.6926V28.5965C186.244 28.5698 186.222 28.5482 186.196 28.5482C186.178 28.5482 186.161 28.5581 186.153 28.5738C185.203 30.3372 183.156 31.4247 181.048 31.4247ZM182.223 28.5172C184.388 28.5172 186.151 27.0635 186.151 25.0839V25.0021C186.151 24.5947 186.151 24.3911 186.07 24.2393C185.999 24.1059 185.886 23.9996 185.749 23.9368C185.592 23.8653 185.389 23.8777 184.982 23.9025L182.347 24.0632C180.491 24.1869 179.424 25.0221 179.424 26.3211C179.424 27.6666 180.553 28.5172 182.223 28.5172Z" fill="#050B2B"/>
<path d="M194.348 31.4711C193.189 31.4711 192.431 30.7288 192.431 29.4452V16.4078C192.431 15.1551 193.189 14.4437 194.271 14.4437C195.354 14.4437 196.127 15.1551 196.127 16.4078V17.5684C196.127 17.5937 196.147 17.6141 196.173 17.6141C196.192 17.6141 196.209 17.6022 196.216 17.5844C196.934 15.6988 198.659 14.4592 200.875 14.4592C203.177 14.4592 204.825 15.6323 205.439 17.7063C205.447 17.7339 205.472 17.7533 205.501 17.7533C205.528 17.7533 205.552 17.7368 205.562 17.7121C206.361 15.7101 208.299 14.4592 210.649 14.4592C213.881 14.4592 216 16.6398 216 19.9185V29.4452C216 30.7288 215.227 31.4711 214.082 31.4711C212.922 31.4711 212.149 30.7288 212.149 29.4452V20.8618C212.149 18.8513 211.098 17.7069 209.211 17.7069C207.355 17.7069 206.087 19.0679 206.087 21.032V29.4452C206.087 30.7288 205.36 31.4711 204.215 31.4711C203.055 31.4711 202.344 30.7288 202.344 29.4452V20.6608C202.344 18.8359 201.231 17.7069 199.437 17.7069C197.581 17.7069 196.282 19.1452 196.282 21.1248V29.4452C196.282 30.7288 195.493 31.4711 194.348 31.4711Z" fill="#050B2B"/>
</g>
</g>
<defs>
<linearGradient id="paint0_linear_2_157" x1="13.8743" y1="0.479736" x2="21.7926" y2="39.5204" gradientUnits="userSpaceOnUse">
<stop stop-color="#1EFAF7"/>
<stop offset="0.43419" stop-color="#0586EB"/>
<stop offset="0.918967" stop-color="#0028E2"/>
</linearGradient>
<clipPath id="clip0_2_157">
<rect width="216" height="39.0407" fill="white" transform="translate(0 0.479736)"/>
</clipPath>
</defs>
</svg>
