<svg width="17" height="16" viewBox="0 0 17 16" fill="none" xmlns="http://www.w3.org/2000/svg">
<g id="apps">
<path id="Vector" d="M7.16666 8.66659H2.49999C2.32318 8.66659 2.15361 8.73682 2.02859 8.86185C1.90357 8.98687 1.83333 9.15644 1.83333 9.33325V13.9999C1.83333 14.1767 1.90357 14.3463 2.02859 14.4713C2.15361 14.5963 2.32318 14.6666 2.49999 14.6666H7.16666C7.34347 14.6666 7.51304 14.5963 7.63807 14.4713C7.76309 14.3463 7.83333 14.1767 7.83333 13.9999V9.33325C7.83333 9.15644 7.76309 8.98687 7.63807 8.86185C7.51304 8.73682 7.34347 8.66659 7.16666 8.66659ZM6.5 13.3333H3.16666V9.99992H6.5V13.3333ZM14.5 1.33325H9.83333C9.65652 1.33325 9.48695 1.40349 9.36192 1.52851C9.2369 1.65354 9.16666 1.82311 9.16666 1.99992V6.66659C9.16666 6.8434 9.2369 7.01297 9.36192 7.13799C9.48695 7.26301 9.65652 7.33325 9.83333 7.33325H14.5C14.6768 7.33325 14.8464 7.26301 14.9714 7.13799C15.0964 7.01297 15.1667 6.8434 15.1667 6.66659V1.99992C15.1667 1.82311 15.0964 1.65354 14.9714 1.52851C14.8464 1.40349 14.6768 1.33325 14.5 1.33325ZM13.8333 5.99992H10.5V2.66659H13.8333V5.99992ZM14.5 8.66659H9.83333C9.65652 8.66659 9.48695 8.73682 9.36192 8.86185C9.2369 8.98687 9.16666 9.15644 9.16666 9.33325V13.9999C9.16666 14.1767 9.2369 14.3463 9.36192 14.4713C9.48695 14.5963 9.65652 14.6666 9.83333 14.6666H14.5C14.6768 14.6666 14.8464 14.5963 14.9714 14.4713C15.0964 14.3463 15.1667 14.1767 15.1667 13.9999V9.33325C15.1667 9.15644 15.0964 8.98687 14.9714 8.86185C14.8464 8.73682 14.6768 8.66659 14.5 8.66659ZM13.8333 13.3333H10.5V9.99992H13.8333V13.3333ZM7.16666 1.33325H2.49999C2.32318 1.33325 2.15361 1.40349 2.02859 1.52851C1.90357 1.65354 1.83333 1.82311 1.83333 1.99992V6.66659C1.83333 6.8434 1.90357 7.01297 2.02859 7.13799C2.15361 7.26301 2.32318 7.33325 2.49999 7.33325H7.16666C7.34347 7.33325 7.51304 7.26301 7.63807 7.13799C7.76309 7.01297 7.83333 6.8434 7.83333 6.66659V1.99992C7.83333 1.82311 7.76309 1.65354 7.63807 1.52851C7.51304 1.40349 7.34347 1.33325 7.16666 1.33325ZM6.5 5.99992H3.16666V2.66659H6.5V5.99992Z" fill="white"/>
</g>
</svg>
