<svg width="14" height="14" viewBox="0 0 14 14" fill="none" xmlns="http://www.w3.org/2000/svg">
<g id="multiply">
<path id="Vector" d="M7.8225 6.99999L11.4975 3.33082C11.6073 3.22098 11.6691 3.072 11.6691 2.91665C11.6691 2.76131 11.6073 2.61233 11.4975 2.50249C11.3877 2.39264 11.2387 2.33093 11.0833 2.33093C10.928 2.33093 10.779 2.39264 10.6692 2.50249L7 6.17749L3.33084 2.50249C3.22099 2.39264 3.07201 2.33093 2.91667 2.33093C2.76133 2.33093 2.61235 2.39264 2.50251 2.50249C2.39266 2.61233 2.33095 2.76131 2.33095 2.91665C2.33095 3.072 2.39266 3.22098 2.50251 3.33082L6.17751 6.99999L2.50251 10.6692C2.44783 10.7234 2.40443 10.7879 2.37482 10.859C2.3452 10.9301 2.32996 11.0063 2.32996 11.0833C2.32996 11.1603 2.3452 11.2366 2.37482 11.3077C2.40443 11.3787 2.44783 11.4433 2.50251 11.4975C2.55673 11.5522 2.62125 11.5956 2.69234 11.6252C2.76342 11.6548 2.83966 11.67 2.91667 11.67C2.99368 11.67 3.06992 11.6548 3.14101 11.6252C3.21209 11.5956 3.27661 11.5522 3.33084 11.4975L7 7.82249L10.6692 11.4975C10.7234 11.5522 10.7879 11.5956 10.859 11.6252C10.9301 11.6548 11.0063 11.67 11.0833 11.67C11.1603 11.67 11.2366 11.6548 11.3077 11.6252C11.3788 11.5956 11.4433 11.5522 11.4975 11.4975C11.5522 11.4433 11.5956 11.3787 11.6252 11.3077C11.6548 11.2366 11.6701 11.1603 11.6701 11.0833C11.6701 11.0063 11.6548 10.9301 11.6252 10.859C11.5956 10.7879 11.5522 10.7234 11.4975 10.6692L7.8225 6.99999Z" fill="#DE303A"/>
</g>
</svg>
