<svg width="17" height="16" viewBox="0 0 17 16" fill="none" xmlns="http://www.w3.org/2000/svg">
<g id="files-landscapes-alt" clip-path="url(#clip0_5_44)">
<path id="Vector" d="M12.1667 12.6667H4.16672C3.63629 12.6667 3.12758 12.456 2.75251 12.0809C2.37744 11.7058 2.16672 11.1971 2.16672 10.6667V5.33333C2.16672 5.15652 2.09648 4.98695 1.97146 4.86193C1.84644 4.7369 1.67687 4.66667 1.50006 4.66667C1.32324 4.66667 1.15368 4.7369 1.02865 4.86193C0.903627 4.98695 0.833389 5.15652 0.833389 5.33333V10.6667C0.833389 11.5507 1.18458 12.3986 1.8097 13.0237C2.11923 13.3332 2.48669 13.5787 2.89111 13.7463C3.29553 13.9138 3.72898 14 4.16672 14H12.1667C12.3435 14 12.5131 13.9298 12.6381 13.8047C12.7632 13.6797 12.8334 13.5101 12.8334 13.3333C12.8334 13.1565 12.7632 12.987 12.6381 12.8619C12.5131 12.7369 12.3435 12.6667 12.1667 12.6667ZM9.50006 7.33333H6.83339C6.65658 7.33333 6.48701 7.40357 6.36198 7.5286C6.23696 7.65362 6.16672 7.82319 6.16672 8C6.16672 8.17681 6.23696 8.34638 6.36198 8.4714C6.48701 8.59643 6.65658 8.66667 6.83339 8.66667H9.50006C9.67687 8.66667 9.84644 8.59643 9.97146 8.4714C10.0965 8.34638 10.1667 8.17681 10.1667 8C10.1667 7.82319 10.0965 7.65362 9.97146 7.5286C9.84644 7.40357 9.67687 7.33333 9.50006 7.33333ZM15.5001 6.62667C15.4931 6.56542 15.4797 6.50509 15.4601 6.44667V6.38667C15.428 6.31812 15.3852 6.25511 15.3334 6.2L11.3334 2.2C11.2783 2.14814 11.2153 2.10539 11.1467 2.07333H11.0867C11.019 2.03449 10.9442 2.00956 10.8667 2H5.50006C4.96962 2 4.46092 2.21071 4.08584 2.58579C3.71077 2.96086 3.50006 3.46957 3.50006 4V9.33333C3.50006 9.86377 3.71077 10.3725 4.08584 10.7475C4.46092 11.1226 4.96962 11.3333 5.50006 11.3333H13.5001C14.0305 11.3333 14.5392 11.1226 14.9143 10.7475C15.2893 10.3725 15.5001 9.86377 15.5001 9.33333V6.66667C15.5001 6.66667 15.5001 6.66667 15.5001 6.62667ZM11.5001 4.27333L13.2267 6H12.1667C11.9899 6 11.8203 5.92976 11.6953 5.80474C11.5703 5.67971 11.5001 5.51014 11.5001 5.33333V4.27333ZM14.1667 9.33333C14.1667 9.51014 14.0965 9.67971 13.9715 9.80474C13.8464 9.92976 13.6769 10 13.5001 10H5.50006C5.32324 10 5.15368 9.92976 5.02865 9.80474C4.90363 9.67971 4.83339 9.51014 4.83339 9.33333V4C4.83339 3.82319 4.90363 3.65362 5.02865 3.5286C5.15368 3.40357 5.32324 3.33333 5.50006 3.33333H10.1667V5.33333C10.1667 5.86377 10.3774 6.37247 10.7525 6.74755C11.1276 7.12262 11.6363 7.33333 12.1667 7.33333H14.1667V9.33333ZM6.83339 6H8.16672C8.34353 6 8.5131 5.92976 8.63813 5.80474C8.76315 5.67971 8.83339 5.51014 8.83339 5.33333C8.83339 5.15652 8.76315 4.98695 8.63813 4.86193C8.5131 4.7369 8.34353 4.66667 8.16672 4.66667H6.83339C6.65658 4.66667 6.48701 4.7369 6.36198 4.86193C6.23696 4.98695 6.16672 5.15652 6.16672 5.33333C6.16672 5.51014 6.23696 5.67971 6.36198 5.80474C6.48701 5.92976 6.65658 6 6.83339 6Z" fill="#0129E3"/>
</g>
<defs>
<clipPath id="clip0_5_44">
<rect width="16" height="16" fill="white" transform="translate(0.166718)"/>
</clipPath>
</defs>
</svg>
