<svg width="240" height="44" viewBox="0 0 240 44" fill="none" xmlns="http://www.w3.org/2000/svg">
<g id="Logo" clip-path="url(#clip0_72_6)">
<path id="Union" fill-rule="evenodd" clip-rule="evenodd" d="M15.2504 2.04686C14.8418 2.84876 14.8418 3.89852 14.8418 5.99802V14.8423H5.99802C3.89852 14.8423 2.84876 14.8423 2.04686 15.2509C1.34148 15.6103 0.767997 16.1838 0.408591 16.8892C0 17.6911 0 18.7408 0 20.8403V22.5388C0 24.6383 0 25.688 0.408591 26.4899C0.767997 27.1953 1.34148 27.7688 2.04686 28.1282C2.84876 28.5368 3.89852 28.5368 5.99802 28.5368H14.8418V37.3805C14.8418 39.48 14.8418 40.5298 15.2504 41.3317C15.6098 42.0371 16.1833 42.6105 16.8887 42.9699C17.6906 43.3785 18.7403 43.3785 20.8398 43.3785H22.5383C24.6378 43.3785 25.6875 43.3785 26.4894 42.9699C27.1948 42.6105 27.7683 42.0371 28.1277 41.3317C28.5363 40.5298 28.5363 39.48 28.5363 37.3805V28.5368H37.3805C39.48 28.5368 40.5298 28.5368 41.3317 28.1282C42.0371 27.7688 42.6105 27.1953 42.9699 26.4899C43.3785 25.688 43.3785 24.6383 43.3785 22.5388V20.8403C43.3785 18.7408 43.3785 17.6911 42.9699 16.8892C42.6105 16.1838 42.0371 15.6103 41.3317 15.2509C40.5298 14.8423 39.48 14.8423 37.3805 14.8423H28.5363V5.99802C28.5363 3.89852 28.5363 2.84876 28.1277 2.04686C27.7683 1.34148 27.1948 0.767997 26.4894 0.408591C25.6875 0 24.6378 0 22.5383 0H20.8398C18.7403 0 17.6906 0 16.8887 0.408591C16.1833 0.767997 15.6098 1.34148 15.2504 2.04686Z" fill="url(#paint0_linear_72_6)"/>
<g id="Med Yordam">
<path d="M56.8486 34.3833C55.5942 34.3833 54.8553 33.6101 54.8553 32.3041V11.821C54.8553 10.0682 55.9379 9.00285 57.7078 9.00285C59.2372 9.00285 60.1135 9.65583 60.7665 11.3055L67.5625 27.9445C67.5782 27.983 67.6156 28.0081 67.6572 28.0081C67.6988 28.0081 67.7362 27.983 67.7519 27.9445L74.5308 11.3055C75.1837 9.67301 76.0773 9.00285 77.6238 9.00285C79.3938 9.00285 80.442 10.0511 80.442 11.821V32.3041C80.442 33.6101 79.7031 34.3833 78.4487 34.3833C77.1943 34.3833 76.4553 33.6101 76.4553 32.3041V16.5671C76.4553 16.5273 76.4231 16.495 76.3833 16.495C76.3541 16.495 76.3278 16.5126 76.3167 16.5396L69.7537 32.4416C69.3241 33.4726 68.6883 33.9366 67.6572 33.9366C66.6434 33.9366 65.9732 33.4726 65.5608 32.4588L58.9978 16.5396C58.9867 16.5126 58.9604 16.495 58.9312 16.495C58.8914 16.495 58.8591 16.5273 58.8591 16.567V32.3041C58.8591 33.6101 58.103 34.3833 56.8486 34.3833Z" fill="white"/>
<path d="M91.784 34.4521C86.2164 34.4521 82.9343 30.9638 82.9343 25.0525C82.9343 19.2444 86.2852 15.4983 91.5434 15.4983C96.5267 15.4983 99.9291 19.0382 99.9291 23.9871C99.9291 25.2587 99.2074 26.0148 97.9358 26.0148H87.3334C87.2575 26.0148 87.1959 26.0764 87.1959 26.1523C87.1959 29.1938 88.9659 31.1528 91.7496 31.1528C93.6742 31.1528 94.9286 30.4826 96.3033 28.7299C96.7501 28.2315 97.1454 28.0425 97.7468 28.0425C98.7091 28.0425 99.4652 28.6611 99.4652 29.6922C99.4652 30.0187 99.3621 30.3967 99.173 30.7747C97.9702 33.0946 95.2551 34.4521 91.784 34.4521ZM87.4595 21.9121C87.3567 22.2506 87.3054 22.4198 87.363 22.632C87.4071 22.7946 87.5524 22.9906 87.6952 23.08C87.8815 23.1967 88.1002 23.1967 88.5376 23.1967H94.4718C94.8986 23.1967 95.112 23.1967 95.2953 23.0851C95.4362 22.9993 95.5816 22.8117 95.6295 22.6538C95.6918 22.4485 95.6487 22.2811 95.5624 21.9462C95.0653 20.0172 93.563 18.8148 91.5606 18.8148C89.5744 18.8148 88.0332 20.0213 87.4595 21.9121Z" fill="white"/>
<path d="M108.797 34.3833C104.209 34.3833 101.236 30.7576 101.236 24.9666C101.236 19.21 104.209 15.5671 108.797 15.5671C111.393 15.5671 113.446 16.9084 114.416 18.8992C114.426 18.9211 114.448 18.9351 114.473 18.9351C114.508 18.9351 114.536 18.9068 114.536 18.8718V11.2024C114.536 9.75893 115.412 8.95129 116.667 8.95129C117.921 8.95129 118.815 9.75893 118.815 11.2024V32.2869C118.815 33.6616 117.938 34.4349 116.701 34.4349C115.464 34.4349 114.536 33.6788 114.536 32.2869V30.9122C114.536 30.8838 114.513 30.8607 114.484 30.8607C114.464 30.8607 114.445 30.8732 114.437 30.8924C113.554 32.9715 111.601 34.3833 108.797 34.3833ZM110.085 30.8778C112.783 30.8778 114.553 28.5924 114.553 24.9838C114.553 21.4096 112.783 19.0897 110.085 19.0897C107.336 19.0897 105.618 21.3752 105.618 24.9838C105.618 28.6096 107.319 30.8778 110.085 30.8778Z" fill="white"/>
<path d="M137.65 34.3833C136.275 34.3833 135.45 33.5413 135.45 32.0807V24.6795C135.45 24.5435 135.45 24.4755 135.439 24.4097C135.428 24.3512 135.411 24.2942 135.388 24.2397C135.361 24.1783 135.324 24.1215 135.249 24.0078L127.7 12.5083C127.391 12.01 127.253 11.5289 127.253 11.0305C127.253 9.86204 128.199 9.00285 129.453 9.00285C130.381 9.00285 130.914 9.32934 131.481 10.2916L137.605 20.0427C137.622 20.0699 137.652 20.0864 137.684 20.0864C137.716 20.0864 137.746 20.0699 137.763 20.0428L143.905 10.2916C144.454 9.36371 145.004 9.00285 145.881 9.00285C147.118 9.00285 148.063 9.86204 148.063 11.0134C148.063 11.5289 147.926 11.9928 147.599 12.5083L140.067 24.0081C139.992 24.1217 139.955 24.1785 139.929 24.2398C139.905 24.2942 139.888 24.3511 139.878 24.4095C139.866 24.4752 139.866 24.5431 139.866 24.6788V32.0807C139.866 33.5413 139.042 34.3833 137.65 34.3833Z" fill="white"/>
<path d="M154.542 34.4521C149.198 34.4521 145.727 30.895 145.727 24.9838C145.727 19.1069 149.232 15.4983 154.542 15.4983C159.852 15.4983 163.357 19.0897 163.357 24.9838C163.357 30.895 159.886 34.4521 154.542 34.4521ZM154.542 31.0669C157.257 31.0669 159.01 28.8673 159.01 24.9838C159.01 21.1174 157.257 18.9007 154.542 18.9007C151.844 18.9007 150.074 21.1174 150.074 24.9838C150.074 28.8673 151.827 31.0669 154.542 31.0669Z" fill="white"/>
<path d="M167.534 34.4349C166.245 34.4349 165.403 33.5929 165.403 32.1838V17.6807C165.403 16.3403 166.228 15.5155 167.448 15.5155C168.633 15.5155 169.475 16.3403 169.475 17.6807V19.0246C169.475 19.0511 169.497 19.0726 169.523 19.0726C169.546 19.0726 169.565 19.057 169.57 19.0354C170.078 16.9258 171.651 15.5671 173.462 15.5671C174.132 15.5671 174.648 15.7389 174.974 16.031C175.37 16.3575 175.576 16.873 175.576 17.5776C175.576 18.2477 175.37 18.7461 174.94 19.0897C174.528 19.4506 173.892 19.6396 173.05 19.6568C170.61 19.674 169.682 21.2034 169.682 23.4201V32.1838C169.682 33.5929 168.823 34.4349 167.534 34.4349Z" fill="white"/>
<path d="M182.914 34.3833C178.326 34.3833 175.353 30.7576 175.353 24.9666C175.353 19.21 178.326 15.5671 182.914 15.5671C185.51 15.5671 187.563 16.9084 188.533 18.8992C188.544 18.9211 188.566 18.9351 188.59 18.9351C188.625 18.9351 188.653 18.9068 188.653 18.8718V11.2024C188.653 9.75893 189.53 8.95129 190.784 8.95129C192.039 8.95129 192.932 9.75893 192.932 11.2024V32.2869C192.932 33.6616 192.056 34.4349 190.818 34.4349C189.581 34.4349 188.653 33.6788 188.653 32.2869V30.9122C188.653 30.8838 188.63 30.8607 188.602 30.8607C188.581 30.8607 188.562 30.8732 188.554 30.8924C187.671 32.9715 185.718 34.3833 182.914 34.3833ZM184.203 30.8778C186.901 30.8778 188.671 28.5924 188.671 24.9838C188.671 21.4096 186.901 19.0897 184.203 19.0897C181.453 19.0897 179.735 21.3752 179.735 24.9838C179.735 28.6096 181.436 30.8778 184.203 30.8778Z" fill="white"/>
<path d="M201.164 34.3833C197.641 34.3833 195.081 32.1666 195.081 28.8845C195.081 25.654 197.572 23.7122 202.006 23.4373L205.68 23.228C206.086 23.2049 206.289 23.1933 206.444 23.1069C206.579 23.0308 206.689 22.9151 206.757 22.7752C206.834 22.6164 206.834 22.4129 206.834 22.0059V21.8563C206.834 19.9489 205.546 18.8492 203.432 18.8492C201.765 18.8492 200.683 19.4162 199.617 20.98C199.171 21.5642 198.603 21.8392 197.882 21.8392C196.834 21.8392 196.077 21.1518 196.077 20.1208C196.077 19.7255 196.181 19.3475 196.37 18.9523C197.297 16.8387 200.116 15.4983 203.604 15.4983C208.123 15.4983 211.062 17.8869 211.062 21.547V32.2869C211.062 33.6616 210.185 34.4349 208.982 34.4349C207.814 34.4349 207.006 33.7304 206.938 32.4588V31.2408C206.938 31.2112 206.914 31.1872 206.884 31.1872C206.864 31.1872 206.846 31.1982 206.836 31.2156C205.781 33.175 203.507 34.3833 201.164 34.3833ZM202.47 31.1528C204.876 31.1528 206.834 29.5375 206.834 27.338V27.2471C206.834 26.7945 206.834 26.5681 206.745 26.3995C206.666 26.2513 206.54 26.1332 206.387 26.0634C206.214 25.9839 205.988 25.9977 205.536 26.0253L202.607 26.2038C200.545 26.3413 199.36 27.2692 199.36 28.7127C199.36 30.2077 200.614 31.1528 202.47 31.1528Z" fill="white"/>
<path d="M215.943 34.4349C214.654 34.4349 213.812 33.6101 213.812 32.1838V17.6979C213.812 16.306 214.654 15.5155 215.857 15.5155C217.06 15.5155 217.919 16.306 217.919 17.6979V18.9875C217.919 19.0155 217.941 19.0382 217.969 19.0382C217.991 19.0382 218.01 19.0249 218.017 19.0052C218.815 16.9101 220.733 15.5327 223.194 15.5327C225.752 15.5327 227.583 16.8361 228.265 19.1406C228.274 19.1713 228.303 19.1929 228.335 19.1929C228.364 19.1929 228.391 19.1745 228.402 19.1471C229.29 16.9227 231.443 15.5327 234.054 15.5327C237.646 15.5327 240 17.9556 240 21.5986V32.1838C240 33.6101 239.141 34.4349 237.869 34.4349C236.58 34.4349 235.721 33.6101 235.721 32.1838V22.6468C235.721 20.4129 234.553 19.1413 232.456 19.1413C230.394 19.1413 228.985 20.6535 228.985 22.8358V32.1838C228.985 33.6101 228.177 34.4349 226.906 34.4349C225.617 34.4349 224.827 33.6101 224.827 32.1838V22.4234C224.827 20.3957 223.589 19.1413 221.596 19.1413C219.534 19.1413 218.091 20.7394 218.091 22.9389V32.1838C218.091 33.6101 217.214 34.4349 215.943 34.4349Z" fill="white"/>
</g>
</g>
<defs>
<linearGradient id="paint0_linear_72_6" x1="15.4158" y1="-9.3745e-08" x2="24.2139" y2="43.3785" gradientUnits="userSpaceOnUse">
<stop stop-color="#1EFAF7"/>
<stop offset="0.43419" stop-color="#0586EB"/>
<stop offset="0.918967" stop-color="#0028E2"/>
</linearGradient>
<clipPath id="clip0_72_6">
<rect width="240" height="43.3785" fill="white"/>
</clipPath>
</defs>
</svg>
