<svg width="16" height="16" viewBox="0 0 16 16" fill="none" xmlns="http://www.w3.org/2000/svg">
<g id="map-marker">
<path id="Vector" d="M8.00002 1.33325C6.58553 1.33325 5.22898 1.89516 4.22878 2.89535C3.22859 3.89554 2.66669 5.2521 2.66669 6.66659C2.66669 10.2666 7.36669 14.3333 7.56669 14.5066C7.68744 14.6099 7.84112 14.6666 8.00002 14.6666C8.15892 14.6666 8.3126 14.6099 8.43335 14.5066C8.66669 14.3333 13.3334 10.2666 13.3334 6.66659C13.3334 5.2521 12.7715 3.89554 11.7713 2.89535C10.7711 1.89516 9.41451 1.33325 8.00002 1.33325ZM8.00002 13.0999C6.58002 11.7666 4.00002 8.89325 4.00002 6.66659C4.00002 5.60572 4.42145 4.5883 5.17159 3.83816C5.92174 3.08801 6.93915 2.66659 8.00002 2.66659C9.06089 2.66659 10.0783 3.08801 10.8284 3.83816C11.5786 4.5883 12 5.60572 12 6.66659C12 8.89325 9.42002 11.7733 8.00002 13.0999ZM8.00002 3.99992C7.4726 3.99992 6.95703 4.15632 6.5185 4.44933C6.07997 4.74235 5.73817 5.15883 5.53634 5.6461C5.33451 6.13337 5.2817 6.66954 5.38459 7.18683C5.48749 7.70411 5.74146 8.17926 6.1144 8.5522C6.48734 8.92514 6.9625 9.17912 7.47978 9.28201C7.99706 9.38491 8.53324 9.3321 9.02051 9.13026C9.50778 8.92843 9.92425 8.58664 10.2173 8.14811C10.5103 7.70957 10.6667 7.194 10.6667 6.66659C10.6667 5.95934 10.3857 5.28106 9.88564 4.78097C9.38554 4.28087 8.70726 3.99992 8.00002 3.99992ZM8.00002 7.99992C7.73631 7.99992 7.47853 7.92172 7.25926 7.77521C7.03999 7.6287 6.8691 7.42046 6.76818 7.17683C6.66726 6.9332 6.64086 6.66511 6.69231 6.40647C6.74375 6.14782 6.87074 5.91025 7.05721 5.72378C7.24368 5.53731 7.48126 5.41032 7.7399 5.35887C7.99854 5.30742 8.26663 5.33383 8.51026 5.43475C8.7539 5.53566 8.96214 5.70656 9.10865 5.92583C9.25515 6.14509 9.33335 6.40288 9.33335 6.66659C9.33335 7.02021 9.19288 7.35935 8.94283 7.60939C8.69278 7.85944 8.35364 7.99992 8.00002 7.99992Z" fill="#0129E3"/>
</g>
</svg>
