<svg width="14" height="14" viewBox="0 0 14 14" fill="none" xmlns="http://www.w3.org/2000/svg">
<g id="sort-amount-up">
<path id="Vector" d="M3.33086 3.66917C3.27538 3.61606 3.20997 3.57443 3.13836 3.54667C2.99634 3.48832 2.83705 3.48832 2.69503 3.54667C2.62342 3.57443 2.558 3.61606 2.50253 3.66917L1.33586 4.83583C1.22602 4.94568 1.16431 5.09466 1.16431 5.25C1.16431 5.40534 1.22602 5.55432 1.33586 5.66417C1.4457 5.77401 1.59468 5.83572 1.75003 5.83572C1.90537 5.83572 2.05435 5.77401 2.16419 5.66417L2.33336 5.48917V9.91667C2.33336 10.0714 2.39482 10.2197 2.50421 10.3291C2.61361 10.4385 2.76198 10.5 2.91669 10.5C3.0714 10.5 3.21978 10.4385 3.32917 10.3291C3.43857 10.2197 3.50003 10.0714 3.50003 9.91667V5.48917L3.66919 5.66417C3.72342 5.71884 3.78794 5.76224 3.85902 5.79185C3.93011 5.82147 4.00635 5.83672 4.08336 5.83672C4.16037 5.83672 4.23661 5.82147 4.3077 5.79185C4.37878 5.76224 4.4433 5.71884 4.49753 5.66417C4.5522 5.60994 4.5956 5.54542 4.62521 5.47434C4.65483 5.40325 4.67008 5.32701 4.67008 5.25C4.67008 5.17299 4.65483 5.09675 4.62521 5.02566C4.5956 4.95458 4.5522 4.89006 4.49753 4.83583L3.33086 3.66917ZM6.41669 4.66667H12.25C12.4047 4.66667 12.5531 4.60521 12.6625 4.49581C12.7719 4.38642 12.8334 4.23804 12.8334 4.08333C12.8334 3.92862 12.7719 3.78025 12.6625 3.67085C12.5531 3.56146 12.4047 3.5 12.25 3.5H6.41669C6.26198 3.5 6.11361 3.56146 6.00421 3.67085C5.89482 3.78025 5.83336 3.92862 5.83336 4.08333C5.83336 4.23804 5.89482 4.38642 6.00421 4.49581C6.11361 4.60521 6.26198 4.66667 6.41669 4.66667V4.66667ZM12.25 9.33333H6.41669C6.26198 9.33333 6.11361 9.39479 6.00421 9.50419C5.89482 9.61358 5.83336 9.76196 5.83336 9.91667C5.83336 10.0714 5.89482 10.2197 6.00421 10.3291C6.11361 10.4385 6.26198 10.5 6.41669 10.5H12.25C12.4047 10.5 12.5531 10.4385 12.6625 10.3291C12.7719 10.2197 12.8334 10.0714 12.8334 9.91667C12.8334 9.76196 12.7719 9.61358 12.6625 9.50419C12.5531 9.39479 12.4047 9.33333 12.25 9.33333ZM12.25 6.41667H6.41669C6.26198 6.41667 6.11361 6.47812 6.00421 6.58752C5.89482 6.69692 5.83336 6.84529 5.83336 7C5.83336 7.15471 5.89482 7.30308 6.00421 7.41248C6.11361 7.52187 6.26198 7.58333 6.41669 7.58333H12.25C12.4047 7.58333 12.5531 7.52187 12.6625 7.41248C12.7719 7.30308 12.8334 7.15471 12.8334 7C12.8334 6.84529 12.7719 6.69692 12.6625 6.58752C12.5531 6.47812 12.4047 6.41667 12.25 6.41667Z" fill="#050B2B"/>
</g>
</svg>
